<svg width="26" height="26" viewBox="0 0 26 26" fill="none" xmlns="http://www.w3.org/2000/svg">
<circle cx="13" cy="13" r="12.5" fill="#D71919" stroke="#32B92C"/>
<path d="M12.9999 8.8125C15.7527 8.8125 17.9843 11.0441 17.9843 13.7969V17.4375C17.9843 17.5701 17.9316 17.6973 17.8378 17.7911C17.7441 17.8848 17.6169 17.9375 17.4843 17.9375H8.51553C8.38292 17.9375 8.25574 17.8848 8.16197 17.7911C8.06821 17.6973 8.01553 17.5701 8.01553 17.4375V13.7969C8.01553 11.0441 10.2471 8.8125 12.9999 8.8125ZM12.5624 6.0625H13.4374C13.4706 6.0625 13.5023 6.07567 13.5258 6.09911C13.5492 6.12255 13.5624 6.15435 13.5624 6.1875V7.6875C13.5624 7.72065 13.5492 7.75245 13.5258 7.77589C13.5023 7.79933 13.4706 7.8125 13.4374 7.8125H12.5624C12.5293 7.8125 12.4975 7.79933 12.474 7.77589C12.4506 7.75245 12.4374 7.72065 12.4374 7.6875V6.1875C12.4374 6.15435 12.4506 6.12255 12.474 6.09911C12.4975 6.07567 12.5293 6.0625 12.5624 6.0625ZM7.76943 7.99469C7.78104 7.98307 7.79483 7.97385 7.81 7.96756C7.82518 7.96126 7.84144 7.95803 7.85787 7.95803C7.8743 7.95803 7.89056 7.96126 7.90574 7.96756C7.92091 7.97385 7.9347 7.98307 7.94631 7.99469L9.00693 9.05531C9.03036 9.07875 9.04352 9.11053 9.04352 9.14367C9.04352 9.17681 9.03036 9.20859 9.00693 9.23203L8.38818 9.85078C8.36474 9.87421 8.33296 9.88736 8.29982 9.88736C8.26669 9.88736 8.23491 9.87421 8.21147 9.85078L7.15084 8.79016C7.12742 8.76672 7.11426 8.73493 7.11426 8.7018C7.11426 8.66866 7.12742 8.63688 7.15084 8.61344L7.76959 7.99469H7.76943ZM18.2319 7.99469L18.8507 8.61344C18.8741 8.63687 18.8872 8.66862 18.8872 8.70172C18.8872 8.73482 18.8741 8.76657 18.8507 8.79L17.7901 9.85094C17.7785 9.86256 17.7647 9.87178 17.7495 9.87807C17.7343 9.88436 17.718 9.8876 17.7016 9.8876C17.6852 9.8876 17.6689 9.88436 17.6538 9.87807C17.6386 9.87178 17.6248 9.86256 17.6132 9.85094L16.9944 9.23219C16.9828 9.22058 16.9736 9.20679 16.9673 9.19162C16.961 9.17644 16.9578 9.16018 16.9578 9.14375C16.9578 9.12732 16.961 9.11106 16.9673 9.09588C16.9736 9.08071 16.9828 9.06692 16.9944 9.05531L18.0552 7.99469C18.0787 7.97126 18.1104 7.9581 18.1436 7.9581C18.1767 7.9581 18.2085 7.97126 18.2319 7.99469ZM7.9999 18.9375H17.9999C18.1325 18.9375 18.2597 18.9902 18.3535 19.0839C18.4472 19.1777 18.4999 19.3049 18.4999 19.4375V19.8125C18.4999 19.8457 18.4867 19.8774 18.4633 19.9009C18.4398 19.9243 18.4081 19.9375 18.3749 19.9375H7.6249C7.59175 19.9375 7.55996 19.9243 7.53651 19.9009C7.51307 19.8774 7.4999 19.8457 7.4999 19.8125V19.4375C7.4999 19.3049 7.55258 19.1777 7.64635 19.0839C7.74012 18.9902 7.86729 18.9375 7.9999 18.9375ZM10.3124 13.9844V17.9375H11.3124V13.9844H10.3124Z" fill="white"/>
</svg>
