<svg width="26" height="26" viewBox="0 0 26 26" fill="none" xmlns="http://www.w3.org/2000/svg">
<circle cx="13" cy="13" r="12.5" fill="#A020F0" stroke="#32B92C"/>
<path d="M18.3337 10.3346H19.667V9.0013L18.3337 7.66797H7.00033C6.6467 7.66797 6.30757 7.80844 6.05752 8.05849C5.80747 8.30854 5.66699 8.64768 5.66699 9.0013V15.0013C5.66699 15.3549 5.80747 15.6941 6.05752 15.9441C6.30757 16.1942 6.6467 16.3346 7.00033 16.3346H7.66699C7.66699 16.8651 7.87771 17.3738 8.25278 17.7488C8.62785 18.1239 9.13656 18.3346 9.66699 18.3346C10.1974 18.3346 10.7061 18.1239 11.0812 17.7488C11.4563 17.3738 11.667 16.8651 11.667 16.3346H15.0003C15.0003 16.8651 15.211 17.3738 15.5861 17.7488C15.9612 18.1239 16.4699 18.3346 17.0003 18.3346C17.5308 18.3346 18.0395 18.1239 18.4145 17.7488C18.7896 17.3738 19.0003 16.8651 19.0003 16.3346H20.3337V13.0013M9.66699 17.3346C9.40178 17.3346 9.14742 17.2293 8.95989 17.0417C8.77235 16.8542 8.66699 16.5999 8.66699 16.3346C8.66699 16.0694 8.77235 15.8151 8.95989 15.6275C9.14742 15.44 9.40178 15.3346 9.66699 15.3346C9.93221 15.3346 10.1866 15.44 10.3741 15.6275C10.5616 15.8151 10.667 16.0694 10.667 16.3346C10.667 16.5999 10.5616 16.8542 10.3741 17.0417C10.1866 17.2293 9.93221 17.3346 9.66699 17.3346ZM11.0003 13.0013H7.00033V11.0013H11.0003M14.3337 15.0013H12.3337V11.0013H14.3337M17.0003 17.3346C16.8025 17.3346 16.6092 17.276 16.4448 17.1661C16.2803 17.0562 16.1521 16.9 16.0764 16.7173C16.0008 16.5346 15.981 16.3335 16.0195 16.1395C16.0581 15.9456 16.1534 15.7674 16.2932 15.6275C16.4331 15.4877 16.6113 15.3924 16.8052 15.3539C16.9992 15.3153 17.2003 15.3351 17.383 15.4108C17.5657 15.4864 17.7219 15.6146 17.8318 15.7791C17.9417 15.9435 18.0003 16.1369 18.0003 16.3346C17.9936 16.5977 17.8861 16.8482 17.7 17.0343C17.5139 17.2204 17.2634 17.3279 17.0003 17.3346ZM16.3337 13.0013V11.3346H18.0003L19.3337 13.0013H16.3337Z" fill="white"/>
</svg>
