<svg width="28" height="32" viewBox="0 0 28 32" fill="none" xmlns="http://www.w3.org/2000/svg">
<path d="M8.03182 31.9999C5.89982 27.5619 7.03582 25.0199 8.67382 22.6239C10.4678 19.9999 10.9318 17.4039 10.9318 17.4039C10.9318 17.4039 12.3438 19.2379 11.7778 22.1079C14.2698 19.3339 14.7418 14.9119 14.3638 13.2179C19.9978 17.1559 22.4058 25.6819 19.1618 32.0019C36.4238 22.2359 23.4558 7.62191 21.1978 5.97591C21.9498 7.62191 22.0938 10.4079 20.5718 11.7619C17.9978 2.00391 11.6358 0.00390625 11.6358 0.00390625C12.3878 5.03591 8.90782 10.5399 5.55182 14.6519C5.43382 12.6459 5.30782 11.2599 4.25382 9.33991C4.01782 12.9859 1.23182 15.9579 0.475821 19.6099C-0.546179 24.5559 1.24182 28.1779 8.02982 32.0039L8.03182 31.9999Z" fill="white"/>
</svg>
