<svg width="18" height="18" viewBox="0 0 18 18" fill="none" xmlns="http://www.w3.org/2000/svg">
<path fill-rule="evenodd" clip-rule="evenodd" d="M9.38318 5.86736C9.57118 5.95236 9.78018 5.99936 9.99968 5.99936H11.9997V2.99936H12.9997V1.99936H11.3292C11.133 1.445 10.7783 0.960506 10.3091 0.606099C9.83985 0.251692 9.27681 0.0429982 8.68995 0.00595865C8.10308 -0.0310809 7.51827 0.105167 7.00821 0.397766C6.49814 0.690366 6.08531 1.12641 5.82103 1.65171C5.55675 2.17701 5.45268 2.7684 5.52174 3.35236C5.59081 3.93632 5.82997 4.48711 6.2095 4.93626C6.58903 5.38542 7.09219 5.71313 7.65644 5.87867C8.22069 6.04421 8.82115 6.04028 9.38318 5.86736ZM8.49968 0.999356C7.75968 0.999356 7.11318 1.40136 6.76718 1.99936H10.2322C10.0566 1.69525 9.80406 1.44273 9.49993 1.26719C9.19581 1.09165 8.85083 0.999278 8.49968 0.999356ZM9.99968 4.99936C9.86707 4.99936 9.73989 4.94668 9.64612 4.85291C9.55236 4.75914 9.49968 4.63196 9.49968 4.49936V2.99936H10.9997V4.99936H9.99968Z" fill="white"/>
<path d="M2 7C1.46957 7 0.960859 7.21071 0.585786 7.58579C0.210714 7.96086 0 8.46957 0 9V12C0 12.5304 0.210714 13.0391 0.585786 13.4142C0.960859 13.7893 1.46957 14 2 14H2.027C2.1555 15.175 2.737 16.14 3.605 16.825C4.5835 17.5965 5.906 18 7.33 18C9.606 18 11.71 17.0835 12.416 14.9965C12.6025 15.0121 12.7897 14.9751 12.9562 14.8896C13.1227 14.8042 13.262 14.6738 13.358 14.5131C13.4541 14.3525 13.5032 14.1682 13.4998 13.981C13.4963 13.7939 13.4405 13.6115 13.3385 13.4545L15.2325 12.4235L14.7545 11.5455L12.3265 12.867L9.8245 11.9285H9.8235C9.72832 11.8926 9.64636 11.8285 9.58856 11.7448C9.53075 11.6611 9.49986 11.5617 9.5 11.46V10C9.5 9.73478 9.39464 9.48043 9.20711 9.29289C9.01957 9.10536 8.76522 9 8.5 9C8.23478 9 7.98043 9.10536 7.79289 9.29289C7.60536 9.48043 7.5 9.73478 7.5 10V12.5C7.49997 12.7036 7.5621 12.9024 7.67808 13.0697C7.79405 13.2371 7.95835 13.365 8.149 13.4365L11.467 14.6805C10.9485 16.194 9.3855 17 7.33 17C6.0865 17 4.9945 16.6465 4.225 16.0395C3.5685 15.522 3.133 14.8115 3.026 13.9305C3.44949 13.8151 3.82324 13.5635 4.08962 13.2146C4.35599 12.8658 4.5002 12.4389 4.5 12V9C4.5 8.46957 4.28929 7.96086 3.91421 7.58579C3.53914 7.21071 3.03043 7 2.5 7H3.25C3.38261 7 3.50979 6.94732 3.60355 6.85355C3.69732 6.75979 3.75 6.63261 3.75 6.5C3.75 6.36739 3.69732 6.24021 3.60355 6.14645C3.50979 6.05268 3.38261 6 3.25 6H1.25C1.11739 6 0.990215 6.05268 0.896447 6.14645C0.802679 6.24021 0.75 6.36739 0.75 6.5C0.75 6.63261 0.802679 6.75979 0.896447 6.85355C0.990215 6.94732 1.11739 7 1.25 7H2ZM17.924 9.765L17.076 9.235L15.348 12H18V11H17.152L17.924 9.765Z" fill="white"/>
<path d="M6 7C5.73478 7 5.48043 7.10536 5.29289 7.29289C5.10536 7.48043 5 7.73478 5 8V12.75C5.00002 13.2585 5.14101 13.757 5.40732 14.1902C5.67362 14.6233 6.05481 14.9742 6.50852 15.2037C6.96223 15.4333 7.47071 15.5325 7.97744 15.4905C8.48418 15.4484 8.96933 15.2667 9.379 14.9655L7.798 14.3725C7.41677 14.2296 7.08824 13.9738 6.8563 13.6392C6.62435 13.3045 6.50005 12.9071 6.5 12.5V10C6.5 9.46957 6.71071 8.96086 7.08579 8.58579C7.46086 8.21071 7.96957 8 8.5 8C9.03043 8 9.53914 8.21071 9.91421 8.58579C10.2893 8.96086 10.5 9.46957 10.5 10V8.5C10.5 8.10218 10.342 7.72064 10.0607 7.43934C9.77936 7.15804 9.39782 7 9 7H6Z" fill="white"/>
</svg>
