<svg width="26" height="26" viewBox="0 0 26 26" fill="none" xmlns="http://www.w3.org/2000/svg">
<circle cx="13" cy="13" r="12.5" fill="#32B92C" stroke="#32B92C"/>
<path fill-rule="evenodd" clip-rule="evenodd" d="M13.2561 10.9116C13.3814 10.9682 13.5208 10.9996 13.6671 10.9996H15.0004V8.99957H15.6671V8.3329H14.5534C14.4227 7.96333 14.1862 7.64034 13.8734 7.40407C13.5606 7.16779 13.1852 7.02867 12.7939 7.00397C12.4027 6.97928 12.0128 7.07011 11.6728 7.26518C11.3327 7.46024 11.0575 7.75094 10.8813 8.10114C10.7052 8.45134 10.6358 8.8456 10.6818 9.23491C10.7279 9.62421 10.8873 9.99141 11.1403 10.2908C11.3933 10.5903 11.7288 10.8088 12.1049 10.9191C12.4811 11.0295 12.8814 11.0269 13.2561 10.9116ZM12.6671 7.66624C12.1738 7.66624 11.7428 7.93424 11.5121 8.3329H13.8221C13.7051 8.13017 13.5367 7.96182 13.3339 7.8448C13.1312 7.72777 12.9012 7.66619 12.6671 7.66624ZM13.6671 10.3329C13.5787 10.3329 13.4939 10.2978 13.4314 10.2353C13.3689 10.1728 13.3338 10.088 13.3338 9.99957V8.99957H14.3338V10.3329H13.6671Z" fill="white"/>
<path d="M8.33333 11.6667C7.97971 11.6667 7.64057 11.8071 7.39052 12.0572C7.14048 12.3072 7 12.6464 7 13V15C7 15.3536 7.14048 15.6928 7.39052 15.9428C7.64057 16.1929 7.97971 16.3333 8.33333 16.3333H8.35133C8.437 17.1167 8.82467 17.76 9.40333 18.2167C10.0557 18.731 10.9373 19 11.8867 19C13.404 19 14.8067 18.389 15.2773 16.9977C15.4017 17.0081 15.5265 16.9834 15.6375 16.9264C15.7485 16.8695 15.8413 16.7825 15.9054 16.6754C15.9694 16.5683 16.0022 16.4454 15.9999 16.3207C15.9976 16.1959 15.9603 16.0743 15.8923 15.9697L17.155 15.2823L16.8363 14.697L15.2177 15.578L13.5497 14.9523H13.549C13.4855 14.9284 13.4309 14.8857 13.3924 14.8299C13.3538 14.7741 13.3332 14.7078 13.3333 14.64V13.6667C13.3333 13.4899 13.2631 13.3203 13.1381 13.1953C13.013 13.0702 12.8435 13 12.6667 13C12.4899 13 12.3203 13.0702 12.1953 13.1953C12.0702 13.3203 12 13.4899 12 13.6667V15.3333C12 15.4691 12.0414 15.6016 12.1187 15.7131C12.196 15.8247 12.3056 15.91 12.4327 15.9577L14.6447 16.787C14.299 17.796 13.257 18.3333 11.8867 18.3333C11.0577 18.3333 10.3297 18.0977 9.81667 17.693C9.379 17.348 9.08867 16.8743 9.01733 16.287C9.29966 16.21 9.54883 16.0423 9.72641 15.8098C9.90399 15.5772 10.0001 15.2926 10 15V13C10 12.6464 9.85952 12.3072 9.60948 12.0572C9.35943 11.8071 9.02029 11.6667 8.66667 11.6667H9.16667C9.25507 11.6667 9.33986 11.6315 9.40237 11.569C9.46488 11.5065 9.5 11.4217 9.5 11.3333C9.5 11.2449 9.46488 11.1601 9.40237 11.0976C9.33986 11.0351 9.25507 11 9.16667 11H7.83333C7.74493 11 7.66014 11.0351 7.59763 11.0976C7.53512 11.1601 7.5 11.2449 7.5 11.3333C7.5 11.4217 7.53512 11.5065 7.59763 11.569C7.66014 11.6315 7.74493 11.6667 7.83333 11.6667H8.33333ZM18.9493 13.51L18.384 13.1567L17.232 15H19V14.3333H18.4347L18.9493 13.51Z" fill="white"/>
<path d="M10.9997 11.668C10.8229 11.668 10.6533 11.7382 10.5283 11.8632C10.4032 11.9883 10.333 12.1578 10.333 12.3346V15.5013C10.333 15.8403 10.427 16.1726 10.6046 16.4614C10.7821 16.7502 11.0362 16.9841 11.3387 17.1371C11.6412 17.2902 11.9801 17.3563 12.318 17.3283C12.6558 17.3003 12.9792 17.1791 13.2523 16.9783L12.1983 16.583C11.9442 16.4877 11.7252 16.3171 11.5705 16.0941C11.4159 15.871 11.333 15.6061 11.333 15.3346V13.668C11.333 13.3143 11.4735 12.9752 11.7235 12.7252C11.9736 12.4751 12.3127 12.3346 12.6663 12.3346C13.02 12.3346 13.3591 12.4751 13.6091 12.7252C13.8592 12.9752 13.9997 13.3143 13.9997 13.668V12.668C13.9997 12.4028 13.8943 12.1484 13.7068 11.9609C13.5192 11.7733 13.2649 11.668 12.9997 11.668H10.9997Z" fill="white"/>
</svg>
